<?xml version="1.0" encoding="UTF-8"?>
<svg id="Layer_1" data-name="Layer 1" xmlns="http://www.w3.org/2000/svg" viewBox="0 0 118.66 125.98">
  <defs>
    <style>
      .cls-1 {
        fill: #8c1837;
      }

      .cls-2 {
        fill: #290f10;
        stroke: #010101;
        stroke-miterlimit: 10;
        stroke-width: .25px;
      }
    </style>
  </defs>
  <path class="cls-1" d="M58.16,45.15c.69,2.57-.61,3.8,0,4.89.55.98,2.58,1.72,9.64.08h7.59v-9c-.36-2.45-1.32-6.25-4.16-9.73-7.78-9.53-21.86-7.11-22.54-6.98-2.05.28-5.85,1.08-9.73,3.74-1.42.97-4.45,3.11-6.59,7.06-3.35,6.2-2.44,12.55-1.56,15.21.7,2.11,1.4,4.23,2.1,6.34,1.53,2.91,4.29,7.26,8.99,11.26,3.27,2.79,6.49,4.56,8.98,5.68,1.58,1.26,3.17,2.53,4.75,3.79,1.59,2.73,1.18,5.78-.32,6.95-1.78,1.39-5.83.68-7.85-2.97-.16-1.64-.32-3.28-.48-4.92h-11.81c-1.44.07-2.87.14-4.31.21-.34,2.19-.67,4.39-1.01,6.58-.01,1.77.18,6.92,3.82,11.68,5.39,7.04,13.84,7.37,15,7.4,2.09.47,6.89,1.25,12.53-.57,5.48-1.76,8.86-5.04,10.31-6.62.97-.97,5.62-5.84,5.22-12.82-.16-2.67-1-4.81-1.74-6.23-1.31-3.84-2.96-6.66-4.24-8.53-2.76-4.05-5.78-6.82-9.13-9.57-2.05-1.68-4.1-3.37-6.16-5.05-1.26-1-2.53-2-3.79-3-1.61-.97-2.53-2.75-2.37-4.58.18-2.02,1.66-3.74,3.69-4.26.54-.06,1.62-.09,2.7.49,1.77.95,2.28,2.86,2.45,3.46h.02Z"/>
  <path class="cls-2" d="M79.63,62.21c.41,1.31-.36,1.93,0,2.49.33.5,1.53.88,5.7.04h4.49v-4.58c-.21-1.25-.78-3.18-2.46-4.95-4.6-4.85-12.93-3.62-13.33-3.55-1.21.14-3.46.55-5.76,1.9-.84.5-2.64,1.58-3.9,3.6-1.98,3.15-1.45,6.39-.92,7.74.41,1.08.83,2.15,1.24,3.23.91,1.48,2.54,3.7,5.32,5.73,1.94,1.42,3.84,2.32,5.31,2.89.94.64,1.87,1.29,2.81,1.93.94,1.39.7,2.94-.19,3.54-1.06.71-3.45.35-4.64-1.51-.09-.84-.19-1.67-.28-2.51h-6.99c-.85.04-1.7.07-2.55.11-.2,1.12-.4,2.23-.6,3.35,0,.9.11,3.52,2.26,5.95,3.19,3.59,8.18,3.75,8.87,3.77,1.24.24,4.07.64,7.41-.29,3.24-.9,5.24-2.56,6.1-3.37.57-.49,3.33-2.97,3.09-6.53-.09-1.36-.59-2.45-1.03-3.17-.78-1.95-1.75-3.39-2.51-4.34-1.63-2.06-3.42-3.47-5.4-4.87-1.21-.86-2.43-1.71-3.64-2.57-.75-.51-1.49-1.02-2.24-1.53-.95-.49-1.5-1.4-1.4-2.33.11-1.03.98-1.91,2.18-2.17.32-.03.96-.05,1.6.25,1.05.48,1.35,1.45,1.45,1.76h.01Z"/>
</svg>